<svg width="89" height="27" viewBox="0 0 89 27" fill="none" xmlns="http://www.w3.org/2000/svg">
<path d="M22.4839 17.3966C22.4839 16.4002 22.6361 15.5355 22.9405 14.8035C23.2449 14.0714 23.6672 13.4637 24.2073 12.9802C24.7474 12.4968 25.3785 12.1386 26.1024 11.9047C26.8253 11.6708 27.6049 11.5538 28.442 11.5538C28.7464 11.5538 29.0434 11.5805 29.332 11.633C29.6206 11.6864 29.8573 11.75 30.0401 11.8255V8.15594C30.1923 8.11082 30.4354 8.06201 30.7705 8.0086C31.1046 7.95612 31.447 7.92941 31.7978 7.92941C32.1319 7.92941 32.4326 7.95243 32.699 7.99755C32.9653 8.04268 33.1899 8.13292 33.3727 8.2692C33.5556 8.40549 33.692 8.59058 33.7839 8.82447C33.8748 9.05836 33.9212 9.36408 33.9212 9.74162V20.4777C33.9212 21.1877 33.5862 21.754 32.9171 22.1766C32.4753 22.4639 31.9046 22.7172 31.2048 22.9354C30.5051 23.1537 29.6986 23.2632 28.7854 23.2632C27.7961 23.2632 26.9098 23.1279 26.1256 22.8553C25.3414 22.5837 24.6797 22.1914 24.1395 21.6775C23.5994 21.1646 23.1883 20.5486 22.9071 19.8322C22.625 19.1139 22.4839 18.3027 22.4839 17.3966ZM28.9673 14.565C28.145 14.565 27.5139 14.7989 27.0731 15.2667C26.6314 15.7354 26.4114 16.4444 26.4114 17.3956C26.4114 18.3321 26.6165 19.0375 27.0276 19.5136C27.4388 19.9896 28.0318 20.2272 28.8076 20.2272C29.0814 20.2272 29.3292 20.1858 29.5492 20.1029C29.77 20.02 29.9408 19.9261 30.0624 19.8202V14.8376C29.758 14.6552 29.3932 14.565 28.9673 14.565Z" fill="black" fill-opacity="0.87"/>
<path d="M42.2069 23.2623C41.3086 23.2623 40.4752 23.138 39.7077 22.8885C38.9392 22.6389 38.2692 22.266 37.6994 21.7669C37.1286 21.2687 36.6794 20.6425 36.3528 19.8874C36.0252 19.1324 35.8618 18.2493 35.8618 17.2373C35.8618 16.2409 36.0252 15.3836 36.3528 14.6663C36.6794 13.9499 37.1091 13.3605 37.6428 12.9001C38.1755 12.4397 38.7843 12.0999 39.4692 11.8807C40.1541 11.6616 40.8538 11.552 41.5693 11.552C42.3758 11.552 43.1099 11.6736 43.7725 11.9148C44.4342 12.157 45.005 12.4885 45.4848 12.9112C45.9637 13.3338 46.3368 13.8394 46.6031 14.4287C46.8695 15.018 47.0022 15.6599 47.0022 16.3542C47.0022 16.868 46.8574 17.2603 46.5688 17.5319C46.2792 17.8036 45.8764 17.9776 45.3586 18.0531L39.7207 18.8911C39.8877 19.3893 40.2302 19.7631 40.748 20.0127C41.2649 20.2613 41.8589 20.3865 42.528 20.3865C43.1517 20.3865 43.741 20.3073 44.2969 20.149C44.8519 19.9906 45.3048 19.8055 45.6556 19.5937C45.8987 19.7447 46.1047 19.9565 46.2718 20.2282C46.4388 20.4998 46.5224 20.7871 46.5224 21.0891C46.5224 21.7687 46.2031 22.2743 45.5637 22.6067C45.0765 22.8636 44.5289 23.0367 43.9201 23.1279C43.3094 23.2172 42.7387 23.2623 42.2069 23.2623ZM41.5675 14.3615C41.2028 14.3615 40.8863 14.4223 40.6199 14.5429C40.3536 14.6635 40.1364 14.8191 39.9694 15.007C39.8014 15.1958 39.6761 15.4076 39.5926 15.6415C39.5091 15.8753 39.459 16.1138 39.4441 16.3551L43.3475 15.7206C43.302 15.4186 43.134 15.1166 42.8454 14.8145C42.5568 14.5125 42.1299 14.3615 41.5675 14.3615Z" fill="black" fill-opacity="0.87"/>
<path d="M54.2818 11.5529C55.1496 11.5529 55.9366 11.6625 56.6447 11.8817C57.3518 12.1008 57.9495 12.3835 58.4367 12.7307C58.7411 12.9425 58.9806 13.1764 59.156 13.4333C59.3305 13.6902 59.4186 14.0217 59.4186 14.4296V22.3571C59.4186 23.1573 59.2664 23.848 58.962 24.4299C58.6576 25.011 58.2428 25.4944 57.7175 25.8793C57.1922 26.2643 56.576 26.5469 55.8679 26.7284C55.1607 26.9098 54.4034 27 53.5969 27C52.2123 27 51.1237 26.8149 50.332 26.4457C49.5404 26.0755 49.1451 25.4751 49.1451 24.6454C49.1451 24.2983 49.2175 23.9916 49.3613 23.7283C49.5061 23.464 49.6694 23.2642 49.8522 23.1279C50.2931 23.3691 50.7914 23.5736 51.3473 23.7393C51.9023 23.9051 52.4777 23.9879 53.0707 23.9879C53.893 23.9879 54.5463 23.8526 55.0336 23.58C55.5208 23.3084 55.7639 22.87 55.7639 22.266V21.9032C55.1394 22.1748 54.3793 22.3111 53.4809 22.3111C52.796 22.3111 52.1455 22.2098 51.5292 22.0054C50.913 21.8019 50.3729 21.4842 49.9089 21.0541C49.4448 20.6241 49.0717 20.0688 48.7905 19.3893C48.5084 18.7097 48.3683 17.9021 48.3683 16.9656C48.3683 16.0448 48.5168 15.2446 48.8138 14.565C49.1107 13.8854 49.5209 13.3228 50.0462 12.878C50.5715 12.4323 51.1951 12.1008 51.9181 11.8817C52.642 11.6625 53.4299 11.5529 54.2818 11.5529ZM55.6971 14.8366C55.5904 14.7768 55.4345 14.716 55.2294 14.6552C55.0243 14.5954 54.7691 14.565 54.4647 14.565C53.7185 14.565 53.1598 14.7731 52.7867 15.1875C52.4137 15.6028 52.2281 16.1949 52.2281 16.9656C52.2281 17.8413 52.4146 18.4721 52.7867 18.857C53.1598 19.2419 53.635 19.4344 54.2132 19.4344C54.8368 19.4344 55.3315 19.2907 55.6971 19.0044V14.8366Z" fill="black" fill-opacity="0.87"/>
<path d="M67.681 23.2623C66.7827 23.2623 65.9493 23.138 65.1818 22.8885C64.4134 22.6389 63.7433 22.266 63.1735 21.7669C62.6027 21.2687 62.1536 20.6425 61.8269 19.8874C61.4993 19.1324 61.3359 18.2493 61.3359 17.2373C61.3359 16.2409 61.4993 15.3836 61.8269 14.6663C62.1536 13.9499 62.5832 13.3605 63.1169 12.9001C63.6496 12.4397 64.2584 12.0999 64.9433 11.8807C65.6282 11.6616 66.3279 11.552 67.0435 11.552C67.8499 11.552 68.584 11.6736 69.2467 11.9148C69.9084 12.157 70.4791 12.4885 70.9589 12.9112C71.4378 13.3338 71.8109 13.8394 72.0772 14.4287C72.3436 15.018 72.4763 15.6599 72.4763 16.3542C72.4763 16.868 72.3315 17.2603 72.0429 17.5319C71.7533 17.8036 71.3506 17.9776 70.8327 18.0531L65.1948 18.8911C65.3618 19.3893 65.7043 19.7631 66.2221 20.0127C66.7391 20.2613 67.333 20.3865 68.0021 20.3865C68.6258 20.3865 69.2151 20.3073 69.771 20.149C70.326 19.9906 70.7789 19.8055 71.1297 19.5937C71.3728 19.7447 71.5789 19.9565 71.7459 20.2282C71.913 20.4998 71.9965 20.7871 71.9965 21.0891C71.9965 21.7687 71.6772 22.2743 71.0378 22.6067C70.5506 22.8636 70.003 23.0367 69.3942 23.1279C68.7845 23.2172 68.2137 23.2623 67.681 23.2623ZM67.0425 14.3615C66.6778 14.3615 66.3613 14.4223 66.095 14.5429C65.8286 14.6635 65.6115 14.8191 65.4444 15.007C65.2765 15.1958 65.1512 15.4076 65.0676 15.6415C64.9841 15.8753 64.934 16.1138 64.9192 16.3551L68.8225 15.7206C68.7771 15.4186 68.6091 15.1166 68.3205 14.8145C68.0309 14.5125 67.6049 14.3615 67.0425 14.3615Z" fill="black" fill-opacity="0.87"/>
<path d="M74.2554 8.83457C74.2554 8.26089 74.4493 7.77745 74.8373 7.38517C75.2252 6.9929 75.7393 6.79584 76.3778 6.79584C77.0173 6.79584 77.5305 6.99198 77.9184 7.38517C78.3063 7.77837 78.5003 8.26089 78.5003 8.83457C78.5003 9.40826 78.3063 9.8917 77.9184 10.284C77.5305 10.6772 77.0173 10.8733 76.3778 10.8733C75.7384 10.8733 75.2252 10.6772 74.8373 10.284C74.4493 9.8917 74.2554 9.40918 74.2554 8.83457ZM78.3184 22.8774C78.1504 22.9078 77.9035 22.9492 77.5769 23.0017C77.2493 23.0542 76.9189 23.0809 76.5839 23.0809C76.2488 23.0809 75.9481 23.0588 75.6818 23.0127C75.4154 22.9676 75.1908 22.8774 75.008 22.7411C74.8252 22.6057 74.6841 22.4206 74.5858 22.1858C74.4865 21.9519 74.4373 21.6462 74.4373 21.2687V12.0511C74.6043 12.0207 74.8521 11.9792 75.1788 11.9268C75.5064 11.8743 75.8368 11.8476 76.1718 11.8476C76.5068 11.8476 76.8066 11.8697 77.0739 11.9157C77.3402 11.9608 77.5648 12.052 77.7467 12.1874C77.9295 12.3227 78.0697 12.5087 78.169 12.7426C78.2673 12.9765 78.3175 13.2822 78.3175 13.6598V22.8774H78.3184Z" fill="black" fill-opacity="0.87"/>
<path d="M84.6644 19.1176C84.6644 19.5108 84.7897 19.7898 85.0412 19.9556C85.2927 20.1222 85.6463 20.2042 86.1029 20.2042C86.3312 20.2042 86.5669 20.1858 86.8101 20.148C87.0532 20.1103 87.2667 20.0615 87.4495 20.0007C87.5859 20.1674 87.7038 20.3515 87.8031 20.555C87.9015 20.7585 87.9516 21.0044 87.9516 21.2908C87.9516 21.8654 87.7354 22.3332 87.301 22.6951C86.8676 23.0579 86.1029 23.2384 85.0069 23.2384C83.6677 23.2384 82.6366 22.9363 81.9137 22.3323C81.1907 21.7282 80.8297 20.7466 80.8297 19.3874V9.69558C80.9968 9.65046 81.2362 9.60165 81.549 9.54825C81.8608 9.49576 82.1912 9.46906 82.542 9.46906C83.2111 9.46906 83.7327 9.586 84.1057 9.81989C84.4788 10.0538 84.6654 10.5483 84.6654 11.3034V12.7528H87.6555C87.7465 12.9194 87.8347 13.1266 87.9182 13.3753C88.0017 13.6239 88.0435 13.9001 88.0435 14.2022C88.0435 14.7307 87.9256 15.112 87.6899 15.3459C87.4542 15.5807 87.1386 15.6967 86.7423 15.6967H84.6654V19.1176H84.6644Z" fill="black" fill-opacity="0.87"/>
<path d="M17.0233 8.31795V9.48649C16.1453 10.1283 15.0595 10.5086 13.8846 10.5086C11.2721 10.5086 9.10232 8.63287 8.668 6.16318C9.34176 6.0094 10.0434 5.92837 10.7626 5.92837C13.1709 5.92837 15.3667 6.83263 17.0233 8.31795ZM13.8846 0C10.9594 0 8.58911 2.35275 8.58911 5.25339C8.58911 5.56279 8.61602 5.86759 8.668 6.16318C9.34176 6.0094 10.0434 5.92837 10.7626 5.92837C13.1709 5.92837 15.3667 6.83263 17.0233 8.31795V1.02121C16.1453 0.379386 15.0595 0 13.8846 0Z" fill="#25CCB3"/>
<path d="M17.0233 10.656V24.3921C15.2154 26.0128 12.8201 26.9999 10.1919 26.9999C4.56231 26.9999 0 22.4722 0 16.8873C0 12.0805 3.37811 8.05827 7.90609 7.03061C8.38032 9.72499 10.7478 11.772 13.5988 11.772C14.8804 11.7711 16.0655 11.3567 17.0233 10.656ZM15.5059 16.8864C15.5059 13.9747 13.1264 11.6136 10.1919 11.6136C7.25738 11.6136 4.87785 13.9747 4.87785 16.8864C4.87785 19.7981 7.25738 22.1591 10.1919 22.1591C13.1264 22.1591 15.5059 19.799 15.5059 16.8864Z" fill="#0B57A7"/>
</svg>
