<svg width="20" height="20" viewBox="0 0 20 20" fill="none" xmlns="http://www.w3.org/2000/svg">
<path d="M9.99996 1.66675C14.6 1.66675 18.3333 5.40008 18.3333 10.0001C18.3333 14.6001 14.6 18.3334 9.99996 18.3334C5.39996 18.3334 1.66663 14.6001 1.66663 10.0001C1.66663 5.40008 5.39996 1.66675 9.99996 1.66675ZM9.99996 3.33341C6.31663 3.33341 3.33329 6.31675 3.33329 10.0001C3.33329 13.6834 6.31663 16.6667 9.99996 16.6667C13.6833 16.6667 16.6666 13.6834 16.6666 10.0001C16.6666 6.31675 13.6833 3.33341 9.99996 3.33341ZM9.99996 5.83342C11.5166 5.83342 12.8441 6.64425 13.5733 7.85675L12.145 8.71425C11.9202 8.33945 11.6011 8.03013 11.2195 7.81712C10.8378 7.60411 10.4071 7.49487 9.97006 7.50027C9.53305 7.50568 9.1051 7.62555 8.72888 7.84793C8.35265 8.07032 8.04129 8.38744 7.82585 8.76768C7.61041 9.14793 7.49841 9.57801 7.50103 10.015C7.50364 10.4521 7.62078 10.8808 7.84075 11.2584C8.06072 11.6361 8.37585 11.9494 8.75471 12.1673C9.13357 12.3852 9.56292 12.4999 9.99996 12.5001C10.4317 12.5004 10.8562 12.3887 11.232 12.1761C11.6078 11.9634 11.922 11.657 12.1441 11.2867L13.5733 12.1434C13.105 12.9256 12.393 13.5326 11.5466 13.8712C10.7001 14.2099 9.76598 14.2615 8.88738 14.0182C8.00878 13.7749 7.23424 13.2501 6.68257 12.5243C6.1309 11.7985 5.83256 10.9117 5.83329 10.0001C5.83329 7.70008 7.69996 5.83342 9.99996 5.83342Z" fill="#1C1C1C"/>
</svg>
