<svg width="21" height="21" viewBox="0 0 21 21" fill="none" xmlns="http://www.w3.org/2000/svg">
<path d="M10.5669 2.40942C15.0889 2.40942 18.7559 5.667 18.7559 9.6886C18.7552 10.895 18.2756 12.0518 17.4225 12.9048C16.5694 13.7578 15.4125 14.2371 14.2061 14.2376H12.5961C11.8411 14.2376 11.231 14.8477 11.231 15.6027C11.231 15.9483 11.3678 16.2668 11.5766 16.5035C11.7953 16.7491 11.932 17.0677 11.932 17.4223C11.932 18.1781 11.3039 18.7874 10.5669 18.7874C6.04495 18.7874 2.37793 15.1204 2.37793 10.5984C2.37793 6.07645 6.04495 2.40942 10.5669 2.40942ZM9.59324 15.6027C9.59291 15.2082 9.67036 14.8176 9.82116 14.4531C9.97196 14.0887 10.1931 13.7575 10.472 13.4786C10.751 13.1997 11.0821 12.9785 11.4466 12.8277C11.8111 12.6769 12.2017 12.5995 12.5961 12.5998H14.2061C14.978 12.5994 15.7182 12.2926 16.2641 11.747C16.8101 11.2013 17.1172 10.4613 17.1181 9.68942C17.1181 6.61774 14.2257 4.04722 10.5669 4.04722C8.87635 4.04568 7.25065 4.69772 6.0297 5.86702C4.80876 7.03631 4.0871 8.63233 4.01561 10.3214C3.94412 12.0104 4.52834 13.6617 5.64612 14.93C6.7639 16.1983 8.32869 16.9853 10.0133 17.1267C9.73914 16.6658 9.59403 16.1397 9.59324 15.6035V15.6027ZM6.88187 10.5984C6.55609 10.5984 6.24365 10.469 6.01329 10.2386C5.78293 10.0083 5.65352 9.69583 5.65352 9.37005C5.65352 9.04428 5.78293 8.73184 6.01329 8.50148C6.24365 8.27112 6.55609 8.14171 6.88187 8.14171C7.20764 8.14171 7.52008 8.27112 7.75044 8.50148C7.9808 8.73184 8.11021 9.04428 8.11021 9.37005C8.11021 9.69583 7.9808 10.0083 7.75044 10.2386C7.52008 10.469 7.20764 10.5984 6.88187 10.5984ZM14.2519 10.5984C13.9262 10.5984 13.6137 10.469 13.3834 10.2386C13.153 10.0083 13.0236 9.69583 13.0236 9.37005C13.0236 9.04428 13.153 8.73184 13.3834 8.50148C13.6137 8.27112 13.9262 8.14171 14.2519 8.14171C14.5777 8.14171 14.8902 8.27112 15.1205 8.50148C15.3509 8.73184 15.4803 9.04428 15.4803 9.37005C15.4803 9.69583 15.3509 10.0083 15.1205 10.2386C14.8902 10.469 14.5777 10.5984 14.2519 10.5984ZM10.5669 8.14171C10.2411 8.14171 9.92869 8.01229 9.69833 7.78193C9.46797 7.55157 9.33856 7.23914 9.33856 6.91336C9.33856 6.58758 9.46797 6.27515 9.69833 6.04479C9.92869 5.81443 10.2411 5.68501 10.5669 5.68501C10.8927 5.68501 11.2051 5.81443 11.4355 6.04479C11.6658 6.27515 11.7953 6.58758 11.7953 6.91336C11.7953 7.23914 11.6658 7.55157 11.4355 7.78193C11.2051 8.01229 10.8927 8.14171 10.5669 8.14171Z" fill="#49006F"/>
</svg>
