<svg width="21" height="21" viewBox="0 0 21 21" fill="none" xmlns="http://www.w3.org/2000/svg">
<path d="M3.32876 4.43131C4.27873 3.48117 5.55288 2.92543 6.89555 2.87561C8.23821 2.82579 9.55004 3.28558 10.5678 4.16271C11.5847 3.28704 12.8948 2.82777 14.2358 2.87685C15.5769 2.92593 16.8499 3.47973 17.8 4.42739C18.7502 5.37504 19.3073 6.64661 19.3599 7.98753C19.4125 9.32845 18.9567 10.6397 18.0837 11.6589L11.7249 18.0381C11.4328 18.3304 11.041 18.5014 10.628 18.5169C10.2151 18.5324 9.81155 18.3912 9.49833 18.1216L9.40826 18.0389L3.05033 11.6589C2.17779 10.6406 1.72174 9.33053 1.77336 7.99055C1.82498 6.65057 2.38046 5.37944 3.32876 4.43131ZM4.48668 5.58923C3.81702 6.25908 3.431 7.16106 3.40874 8.10797C3.38648 9.05489 3.72968 9.97401 4.36712 10.6746L4.48668 10.8007L10.567 16.881L14.9096 12.5376L12.0148 9.64278L11.1468 10.5108C10.9187 10.739 10.6479 10.92 10.3498 11.0436C10.0518 11.1671 9.7323 11.2308 9.40965 11.2308C8.75804 11.231 8.13306 10.9723 7.67219 10.5116C7.21133 10.051 6.95233 9.42612 6.95217 8.77451C6.95202 8.12289 7.21072 7.49791 7.67137 7.03704L9.3927 5.3149C8.70766 4.76819 7.85023 4.48347 6.97423 4.51183C6.09824 4.5402 5.26102 4.87979 4.61279 5.46967L4.48668 5.58923ZM11.4358 7.90508C11.5894 7.75156 11.7977 7.66531 12.0148 7.66531C12.2319 7.66531 12.4402 7.75156 12.5938 7.90508L16.0675 11.3788L16.6473 10.8007C17.3282 10.1203 17.7158 9.2005 17.7273 8.23801C17.7388 7.27551 17.3732 6.34673 16.7087 5.65029C16.0443 4.95384 15.1337 4.54503 14.1717 4.51128C13.2098 4.47753 12.2728 4.82151 11.5611 5.46967L11.4358 5.58923L8.83011 8.19496C8.68817 8.33681 8.60326 8.52583 8.59148 8.72615C8.57971 8.92648 8.6419 9.12415 8.76624 9.28164L8.83011 9.35289C8.97196 9.49483 9.16098 9.57974 9.3613 9.59152C9.56162 9.60329 9.75929 9.5411 9.91679 9.41676L9.98804 9.35289L11.4358 7.90508Z" fill="#1F559B"/>
</svg>
