<svg width="21" height="21" viewBox="0 0 21 21" fill="none" xmlns="http://www.w3.org/2000/svg">
<path d="M10.5669 1.18115L14.0276 6.2444L19.913 7.97145L16.1665 12.8275L16.3426 18.9578L10.5669 16.8958L4.79122 18.9578L4.96728 12.8275L1.22083 7.97145L7.10624 6.2444L10.5669 1.18115ZM10.5669 4.08333L8.12823 7.65208L3.98051 8.86814L6.62146 12.2895L6.49616 16.6092L10.5669 15.1565L14.6368 16.6092L14.5124 12.2895L17.1525 8.86814L13.0056 7.65208L10.5669 4.08333ZM8.92911 10.5985C8.92911 11.0328 9.10166 11.4494 9.40881 11.7566C9.71595 12.0637 10.1325 12.2363 10.5669 12.2363C11.0013 12.2363 11.4179 12.0637 11.725 11.7566C12.0321 11.4494 12.2047 11.0328 12.2047 10.5985H13.8425C13.8425 11.4672 13.4974 12.3004 12.8831 12.9147C12.2688 13.529 11.4356 13.8741 10.5669 13.8741C9.69816 13.8741 8.865 13.529 8.25071 12.9147C7.63642 12.3004 7.29131 11.4672 7.29131 10.5985H8.92911Z" fill="#1F559B"/>
</svg>
