<svg width="29" height="29" viewBox="0 0 29 29" fill="none" xmlns="http://www.w3.org/2000/svg">
<path d="M16.25 25.9898C19.082 25.6295 21.6705 24.2043 23.4894 22.004C25.3083 19.8037 26.2212 16.9933 26.0424 14.1441C25.8636 11.2949 24.6067 8.62071 22.527 6.665C20.4473 4.70929 17.701 3.61885 14.8462 3.61531C11.9879 3.61318 9.23636 4.70096 7.1522 6.65699C5.06803 8.61303 3.8081 11.2901 3.62911 14.1428C3.45012 16.9955 4.36556 19.8091 6.18888 22.0103C8.01221 24.2115 10.6062 25.6347 13.4424 25.9898V17.6538H10.6347V14.8461H13.4424V12.5241C13.4424 10.6472 13.6389 9.96631 14.0039 9.27983C14.3634 8.60063 14.9191 8.04541 15.5987 7.68646C16.1349 7.39868 16.8018 7.226 17.967 7.1516C18.4288 7.12212 19.0269 7.15862 19.7611 7.26391V9.93121H19.0577C17.7704 9.93121 17.2384 9.99158 16.9211 10.1614C16.7318 10.2588 16.5776 10.4129 16.4803 10.6023C16.3118 10.9195 16.25 11.234 16.25 12.5227V14.8461H19.7597L19.0577 17.6538H16.25V25.9898ZM14.8462 28.8845C7.09276 28.8845 0.807739 22.5995 0.807739 14.8461C0.807739 7.09264 7.09276 0.807617 14.8462 0.807617C22.5996 0.807617 28.8847 7.09264 28.8847 14.8461C28.8847 22.5995 22.5996 28.8845 14.8462 28.8845Z" fill="#1C1C1C"/>
</svg>
