<svg width="35" height="34" viewBox="0 0 35 34" fill="none" xmlns="http://www.w3.org/2000/svg">
<path d="M17.2307 12.6345C16.1138 12.6345 15.0425 13.0783 14.2527 13.8681C13.4629 14.6579 13.0192 15.7291 13.0192 16.8461C13.0192 17.963 13.4629 19.0343 14.2527 19.8241C15.0425 20.6139 16.1138 21.0576 17.2307 21.0576C18.3477 21.0576 19.4189 20.6139 20.2087 19.8241C20.9986 19.0343 21.4423 17.963 21.4423 16.8461C21.4423 15.7291 20.9986 14.6579 20.2087 13.8681C19.4189 13.0783 18.3477 12.6345 17.2307 12.6345ZM17.2307 9.82685C19.0923 9.82685 20.8777 10.5664 22.1941 11.8827C23.5104 13.1991 24.25 14.9845 24.25 16.8461C24.25 18.7077 23.5104 20.4931 22.1941 21.8094C20.8777 23.1258 19.0923 23.8653 17.2307 23.8653C15.3691 23.8653 13.5837 23.1258 12.2674 21.8094C10.951 20.4931 10.2115 18.7077 10.2115 16.8461C10.2115 14.9845 10.951 13.1991 12.2674 11.8827C13.5837 10.5664 15.3691 9.82685 17.2307 9.82685ZM26.3557 9.47589C26.3557 9.94129 26.1708 10.3876 25.8418 10.7167C25.5127 11.0458 25.0663 11.2307 24.6009 11.2307C24.1355 11.2307 23.6892 11.0458 23.3601 10.7167C23.031 10.3876 22.8461 9.94129 22.8461 9.47589C22.8461 9.01048 23.031 8.56414 23.3601 8.23505C23.6892 7.90596 24.1355 7.72108 24.6009 7.72108C25.0663 7.72108 25.5127 7.90596 25.8418 8.23505C26.1708 8.56414 26.3557 9.01048 26.3557 9.47589ZM17.2307 5.61531C13.7576 5.61531 13.1905 5.62514 11.5746 5.69673C10.474 5.74868 9.73559 5.89608 9.05051 6.16281C8.44124 6.39866 8.00184 6.68083 7.53436 7.14971C7.09496 7.57424 6.75712 8.09251 6.54605 8.66587C6.27932 9.35375 6.13192 10.0908 6.08138 11.19C6.00838 12.7398 5.99995 13.2817 5.99995 16.8461C5.99995 20.3192 6.00978 20.8863 6.08138 22.5022C6.13332 23.6014 6.28072 24.3412 6.54605 25.0249C6.7847 25.6356 7.06547 26.075 7.53155 26.541C8.00465 27.0127 8.44405 27.2949 9.0477 27.5279C9.7412 27.7961 10.4796 27.9449 11.5746 27.9954C13.1245 28.0684 13.6664 28.0769 17.2307 28.0769C20.7038 28.0769 21.271 28.067 22.8868 27.9954C23.9846 27.9435 24.7245 27.7961 25.4095 27.5308C26.0174 27.2935 26.4596 27.0113 26.9257 26.5453C27.3988 26.0722 27.681 25.6328 27.914 25.0291C28.1807 24.337 28.3295 23.5972 28.3801 22.5022C28.4531 20.9523 28.4615 20.4104 28.4615 16.8461C28.4615 13.373 28.4517 12.8058 28.3801 11.19C28.3281 10.0922 28.1807 9.35094 27.914 8.66587C27.7024 8.0931 27.3652 7.57502 26.9271 7.14971C26.5028 6.71009 25.9844 6.37222 25.4109 6.16141C24.7231 5.89468 23.9846 5.74727 22.8868 5.69673C21.337 5.62373 20.7951 5.61531 17.2307 5.61531ZM17.2307 2.80762C21.045 2.80762 21.5209 2.82166 23.0174 2.89185C24.5125 2.96204 25.5303 3.19648 26.4259 3.54464C27.3525 3.90121 28.133 4.38414 28.9135 5.16327C29.6274 5.86505 30.1797 6.71394 30.5322 7.65089C30.8789 8.54514 31.1148 9.56433 31.185 11.0594C31.2509 12.5559 31.2692 13.0318 31.2692 16.8461C31.2692 20.6603 31.2551 21.1362 31.185 22.6327C31.1148 24.1278 30.8789 25.1456 30.5322 26.0413C30.1808 26.9787 29.6283 27.8278 28.9135 28.5289C28.2116 29.2425 27.3627 29.7948 26.4259 30.1475C25.5317 30.4943 24.5125 30.7301 23.0174 30.8003C21.5209 30.8663 21.045 30.8845 17.2307 30.8845C13.4165 30.8845 12.9406 30.8705 11.4441 30.8003C9.94897 30.7301 8.93118 30.4943 8.03553 30.1475C7.09822 29.7958 6.24917 29.2434 5.54791 28.5289C4.83393 27.8272 4.28155 26.9783 3.92928 26.0413C3.58113 25.147 3.34668 24.1278 3.27649 22.6327C3.21051 21.1362 3.19226 20.6603 3.19226 16.8461C3.19226 13.0318 3.2063 12.5559 3.27649 11.0594C3.34668 9.56293 3.58113 8.54654 3.92928 7.65089C4.28057 6.71337 4.83308 5.86424 5.54791 5.16327C6.24938 4.44904 7.09836 3.89662 8.03553 3.54464C8.93118 3.19648 9.94757 2.96204 11.4441 2.89185C12.9406 2.82587 13.4165 2.80762 17.2307 2.80762Z" fill="#1C1C1C"/>
</svg>
