<svg width="21" height="21" viewBox="0 0 21 21" fill="none" xmlns="http://www.w3.org/2000/svg">
<path d="M17.1181 2.40942C17.7697 2.40942 18.3946 2.66825 18.8553 3.12897C19.316 3.58969 19.5748 4.21456 19.5748 4.86612V6.50391H17.937V16.3307C17.937 16.9822 17.6782 17.6071 17.2175 18.0678C16.7568 18.5285 16.1319 18.7874 15.4803 18.7874H4.01577C3.36422 18.7874 2.73935 18.5285 2.27863 18.0678C1.81791 17.6071 1.55908 16.9822 1.55908 16.3307V14.6929H14.6614V16.3307C14.6615 16.5313 14.7351 16.7248 14.8684 16.8747C15.0017 17.0246 15.1853 17.1204 15.3845 17.1438L15.4803 17.1496C15.6809 17.1496 15.8745 17.0759 16.0244 16.9426C16.1743 16.8093 16.27 16.6257 16.2935 16.4265L16.2992 16.3307V4.04722H5.65357C5.453 4.04725 5.2594 4.12088 5.10952 4.25417C4.95963 4.38745 4.86387 4.57111 4.8404 4.77031L4.83467 4.86612V13.0551H3.19688V4.86612C3.19688 4.21456 3.45571 3.58969 3.91643 3.12897C4.37715 2.66825 5.00201 2.40942 5.65357 2.40942H17.1181Z" fill="#0B614A"/>
</svg>
