<svg width="19" height="19" viewBox="0 0 19 19" fill="none" xmlns="http://www.w3.org/2000/svg">
<path d="M10.205 12.9247L7.07399 11.2171C6.66521 11.6541 6.13444 11.9581 5.55065 12.0895C4.96686 12.2208 4.35704 12.1736 3.80046 11.9539C3.24387 11.7341 2.76625 11.352 2.42966 10.8573C2.09308 10.3625 1.91309 9.77797 1.91309 9.17958C1.91309 8.58119 2.09308 7.99663 2.42966 7.50187C2.76625 7.00712 3.24387 6.62504 3.80046 6.4053C4.35704 6.18556 4.96686 6.13832 5.55065 6.26971C6.13444 6.40109 6.66521 6.70504 7.07399 7.14205L10.2058 5.43448C10.028 4.73062 10.113 3.98609 10.4449 3.34043C10.7767 2.69477 11.3327 2.19231 12.0085 1.92724C12.6844 1.66217 13.4337 1.65269 14.116 1.90057C14.7984 2.14845 15.3669 2.63668 15.715 3.27374C16.0631 3.91079 16.1669 4.65294 16.007 5.36106C15.847 6.06919 15.4343 6.69468 14.8462 7.12028C14.2581 7.54589 13.535 7.74239 12.8123 7.67296C12.0897 7.60352 11.4172 7.27292 10.9209 6.74312L7.78908 8.45069C7.90928 8.92893 7.90928 9.42948 7.78908 9.90772L10.9201 11.6153C11.4164 11.0855 12.0889 10.7549 12.8116 10.6855C13.5342 10.616 14.2574 10.8125 14.8455 11.2381C15.4336 11.6637 15.8463 12.2892 16.0062 12.9973C16.1662 13.7055 16.0623 14.4476 15.7142 15.0847C15.3661 15.7217 14.7976 16.21 14.1153 16.4578C13.433 16.7057 12.6836 16.6962 12.0078 16.4312C11.332 16.1661 10.776 15.6636 10.4441 15.018C10.1122 14.3723 10.0272 13.6278 10.205 12.9239V12.9247ZM4.8959 10.6705C5.29142 10.6705 5.67075 10.5134 5.95043 10.2337C6.23011 9.95406 6.38723 9.57473 6.38723 9.1792C6.38723 8.78368 6.23011 8.40435 5.95043 8.12468C5.67075 7.845 5.29142 7.68788 4.8959 7.68788C4.50037 7.68788 4.12105 7.845 3.84137 8.12468C3.56169 8.40435 3.40457 8.78368 3.40457 9.1792C3.40457 9.57473 3.56169 9.95406 3.84137 10.2337C4.12105 10.5134 4.50037 10.6705 4.8959 10.6705ZM13.0982 6.19655C13.4937 6.19655 13.8731 6.03942 14.1527 5.75975C14.4324 5.48007 14.5895 5.10074 14.5895 4.70522C14.5895 4.30969 14.4324 3.93037 14.1527 3.65069C13.8731 3.37101 13.4937 3.21389 13.0982 3.21389C12.7027 3.21389 12.3234 3.37101 12.0437 3.65069C11.764 3.93037 11.6069 4.30969 11.6069 4.70522C11.6069 5.10074 11.764 5.48007 12.0437 5.75975C12.3234 6.03942 12.7027 6.19655 13.0982 6.19655ZM13.0982 15.1445C13.4937 15.1445 13.8731 14.9874 14.1527 14.7077C14.4324 14.428 14.5895 14.0487 14.5895 13.6532C14.5895 13.2577 14.4324 12.8783 14.1527 12.5987C13.8731 12.319 13.4937 12.1619 13.0982 12.1619C12.7027 12.1619 12.3234 12.319 12.0437 12.5987C11.764 12.8783 11.6069 13.2577 11.6069 13.6532C11.6069 14.0487 11.764 14.428 12.0437 14.7077C12.3234 14.9874 12.7027 15.1445 13.0982 15.1445Z" fill="#0B614A"/>
</svg>
