<svg width="21" height="21" viewBox="0 0 21 21" fill="none" xmlns="http://www.w3.org/2000/svg">
<path d="M15.5057 14.3793L19.013 17.8858L17.8543 19.0445L14.3478 15.5372C13.043 16.5831 11.4202 17.152 9.74801 17.1496C5.67973 17.1496 2.37793 13.8478 2.37793 9.7795C2.37793 5.71122 5.67973 2.40942 9.74801 2.40942C13.8163 2.40942 17.1181 5.71122 17.1181 9.7795C17.1205 11.4517 16.5516 13.0745 15.5057 14.3793ZM13.863 13.7716C14.9022 12.7029 15.4826 11.2702 15.4803 9.7795C15.4803 6.61201 12.9147 4.04722 9.74801 4.04722C6.58051 4.04722 4.01573 6.61201 4.01573 9.7795C4.01573 12.9462 6.58051 15.5118 9.74801 15.5118C11.2388 15.5141 12.6714 14.9337 13.7401 13.8945L13.863 13.7716ZM10.7127 6.64804C10.4712 6.75711 10.2598 6.92315 10.0966 7.13189C9.93341 7.34063 9.8233 7.58585 9.77572 7.8465C9.72814 8.10716 9.74451 8.37547 9.82342 8.62841C9.90234 8.88134 10.0414 9.11136 10.2288 9.29872C10.4162 9.48607 10.6462 9.62518 10.8991 9.70409C11.152 9.783 11.4204 9.79937 11.681 9.75179C11.9417 9.70421 12.1869 9.5941 12.3956 9.4309C12.6044 9.26771 12.7704 9.05631 12.8795 8.81484C13.0947 9.51387 13.0697 10.2648 12.8086 10.948C12.5475 11.6312 12.0652 12.2074 11.4387 12.5847C10.8121 12.962 10.0773 13.1188 9.35127 13.03C8.62527 12.9412 7.94987 12.612 7.43269 12.0948C6.91551 11.5776 6.5863 10.9022 6.49751 10.1762C6.40873 9.45024 6.56548 8.71541 6.9428 8.08884C7.32011 7.46227 7.89627 6.98001 8.57948 6.71889C9.26269 6.45778 10.0136 6.43283 10.7127 6.64804Z" fill="#49006F"/>
</svg>
