<svg width="35" height="34" viewBox="0 0 35 34" fill="none" xmlns="http://www.w3.org/2000/svg">
<path d="M22.1711 7.79143C21.1042 7.79125 20.0798 8.20995 19.3184 8.95742C18.557 9.70489 18.1195 10.7214 18.1 11.7882L18.0607 13.9992C18.0584 14.118 18.031 14.2348 17.9803 14.3422C17.9297 14.4496 17.8569 14.5451 17.7668 14.6224C17.6766 14.6997 17.5711 14.757 17.4573 14.7907C17.3434 14.8243 17.2237 14.8335 17.106 14.8177L14.9146 14.5201C12.0311 14.127 9.26837 12.799 6.6179 10.5907C5.7784 15.2374 7.4181 18.4565 11.3671 20.9399L13.8196 22.4813C13.9362 22.5545 14.033 22.6552 14.1016 22.7745C14.1702 22.8938 14.2086 23.0281 14.2133 23.1656C14.218 23.3032 14.1889 23.4398 14.1286 23.5635C14.0683 23.6872 13.9786 23.7943 13.8674 23.8753L11.6324 25.508C12.9619 25.5908 14.2239 25.5318 15.2712 25.3241C21.8946 24.0016 26.2984 19.018 26.2984 10.7971C26.2984 10.126 24.8777 7.79143 22.1711 7.79143ZM15.2923 11.7362C15.3168 10.383 15.7399 9.06706 16.5088 7.95319C17.2776 6.83931 18.358 5.97699 19.6146 5.4742C20.8712 4.97141 22.2482 4.85049 23.5732 5.12658C24.8982 5.40267 26.1123 6.0635 27.0635 7.02634C28.0617 7.01932 28.911 7.27201 30.8104 6.12085C30.3401 8.42316 30.1085 9.4227 29.1061 10.7971C29.1061 21.5253 22.5123 26.742 15.8215 28.077C11.2338 28.9923 4.56267 27.4888 2.65063 25.4925C3.6249 25.4167 7.58375 24.9914 9.87202 23.3166C7.93612 22.0405 0.230404 17.506 5.29408 5.31505C7.67079 8.09045 10.0812 9.98003 12.5239 10.9824C14.1495 11.6492 14.5482 11.6352 15.2937 11.7376L15.2923 11.7362Z" fill="#1C1C1C"/>
</svg>
